<svg width="41" height="41" viewBox="0 0 41 41" fill="none" xmlns="http://www.w3.org/2000/svg">
<rect x="0.5" y="0.5" width="40" height="40" fill="white"/>
<rect x="0.5" y="0.5" width="40" height="40" stroke="#FF1F14"/>
<path d="M16.3237 21.14H13.1587V24.335H11.8237V21.14H8.67371V19.895H11.8237V16.685H13.1587V19.895H16.3237V21.14Z" fill="#FF1F14"/>
<path d="M22.5042 29C22.0913 29 21.738 28.8435 21.4442 28.5304C21.1504 28.2173 21.0033 27.8405 21.0028 27.4C21.0028 26.96 21.1499 26.5835 21.4442 26.2704C21.7385 25.9573 22.0918 25.8005 22.5042 25.8C22.917 25.8 23.2706 25.9568 23.5649 26.2704C23.8592 26.584 24.006 26.9605 24.0055 27.4C24.0055 27.84 23.8587 28.2168 23.5649 28.5304C23.2711 28.844 22.9175 29.0005 22.5042 29ZM30.0111 29C29.5982 29 29.2449 28.8435 28.9511 28.5304C28.6573 28.2173 28.5102 27.8405 28.5097 27.4C28.5097 26.96 28.6568 26.5835 28.9511 26.2704C29.2454 25.9573 29.5987 25.8005 30.0111 25.8C30.424 25.8 30.7776 25.9568 31.0718 26.2704C31.3661 26.584 31.513 26.9605 31.5125 27.4C31.5125 27.84 31.3656 28.2168 31.0718 28.5304C30.7781 28.844 30.4245 29.0005 30.0111 29ZM21.8661 16.2L23.6677 20.2H28.9226L30.987 16.2H21.8661ZM21.1529 14.6H32.2256C32.5134 14.6 32.7324 14.7368 32.8825 15.0104C33.0326 15.284 33.0389 15.5605 32.9013 15.84L30.2363 20.96C30.0987 21.2267 29.9143 21.4333 29.683 21.58C29.4518 21.7267 29.1983 21.8 28.9226 21.8H23.3299L22.5042 23.4H31.5125V25H22.5042C21.9411 25 21.5157 24.7368 21.228 24.2104C20.9402 23.684 20.9277 23.1605 21.1904 22.64L22.2039 20.68L19.5014 14.6H18V13H20.4398L21.1529 14.6Z" fill="#FF1F14"/>
</svg>
