<svg width="41" height="41" viewBox="0 0 41 41" fill="none" xmlns="http://www.w3.org/2000/svg">
<rect x="0.5" y="0.5" width="40" height="40" fill="#FF1F14"/>
<rect x="0.5" y="0.5" width="40" height="40" stroke="#FF1F14"/>
<path d="M16.8354 21.095H13.6404V24.335H12.3654V21.095H9.18537V19.94H12.3654V16.685H13.6404V19.94H16.8354V21.095Z" fill="white"/>
<path d="M23.0042 29C22.5913 29 22.238 28.8435 21.9442 28.5304C21.6504 28.2173 21.5033 27.8405 21.5028 27.4C21.5028 26.96 21.6499 26.5835 21.9442 26.2704C22.2385 25.9573 22.5918 25.8005 23.0042 25.8C23.417 25.8 23.7706 25.9568 24.0649 26.2704C24.3592 26.584 24.506 26.9605 24.5055 27.4C24.5055 27.84 24.3587 28.2168 24.0649 28.5304C23.7711 28.844 23.4175 29.0005 23.0042 29ZM30.5111 29C30.0982 29 29.7449 28.8435 29.4511 28.5304C29.1573 28.2173 29.0102 27.8405 29.0097 27.4C29.0097 26.96 29.1568 26.5835 29.4511 26.2704C29.7454 25.9573 30.0987 25.8005 30.5111 25.8C30.924 25.8 31.2776 25.9568 31.5718 26.2704C31.8661 26.584 32.013 26.9605 32.0125 27.4C32.0125 27.84 31.8656 28.2168 31.5718 28.5304C31.2781 28.844 30.9245 29.0005 30.5111 29ZM22.3661 16.2L24.1677 20.2H29.4226L31.487 16.2H22.3661ZM21.6529 14.6H32.7256C33.0134 14.6 33.2324 14.7368 33.3825 15.0104C33.5326 15.284 33.5389 15.5605 33.4013 15.84L30.7363 20.96C30.5987 21.2267 30.4143 21.4333 30.183 21.58C29.9518 21.7267 29.6983 21.8 29.4226 21.8H23.8299L23.0042 23.4H32.0125V25H23.0042C22.4411 25 22.0157 24.7368 21.728 24.2104C21.4402 23.684 21.4277 23.1605 21.6904 22.64L22.7039 20.68L20.0014 14.6H18.5V13H20.9398L21.6529 14.6Z" fill="white"/>
</svg>
