<svg width="16" height="16" viewBox="0 0 16 16" fill="none" xmlns="http://www.w3.org/2000/svg">
<path d="M11.6666 4.33337H11.6733M4.66665 1.33337H11.3333C13.1743 1.33337 14.6666 2.82576 14.6666 4.66671V11.3334C14.6666 13.1743 13.1743 14.6667 11.3333 14.6667H4.66665C2.8257 14.6667 1.33331 13.1743 1.33331 11.3334V4.66671C1.33331 2.82576 2.8257 1.33337 4.66665 1.33337ZM10.6666 7.58004C10.7489 8.13487 10.6542 8.70152 10.3958 9.19938C10.1375 9.69725 9.72874 10.101 9.22773 10.3532C8.72672 10.6053 8.15894 10.6931 7.60517 10.604C7.0514 10.5149 6.53982 10.2534 6.14321 9.85681C5.74659 9.4602 5.48513 8.94862 5.39602 8.39485C5.30691 7.84108 5.39469 7.2733 5.64686 6.77229C5.89904 6.27128 6.30277 5.86253 6.80064 5.6042C7.2985 5.34587 7.86515 5.2511 8.41998 5.33337C8.98593 5.4173 9.50988 5.68102 9.91444 6.08558C10.319 6.49014 10.5827 7.01409 10.6666 7.58004Z" stroke="white" stroke-width="2" stroke-linecap="round" stroke-linejoin="round"/>
</svg>
