<svg width="17" height="16" viewBox="0 0 17 16" fill="none" xmlns="http://www.w3.org/2000/svg">
<g clip-path="url(#clip0_2070_43)">
<path d="M12.0797 4.33337H12.0864M5.07973 1.33337H11.7464C13.5873 1.33337 15.0797 2.82576 15.0797 4.66671V11.3334C15.0797 13.1743 13.5873 14.6667 11.7464 14.6667H5.07973C3.23878 14.6667 1.7464 13.1743 1.7464 11.3334V4.66671C1.7464 2.82576 3.23878 1.33337 5.07973 1.33337ZM11.0797 7.58004C11.162 8.13487 11.0672 8.70152 10.8089 9.19938C10.5506 9.69725 10.1418 10.101 9.64082 10.3532C9.1398 10.6053 8.57203 10.6931 8.01826 10.604C7.46448 10.5149 6.95291 10.2534 6.55629 9.85681C6.15968 9.4602 5.89822 8.94862 5.80911 8.39485C5.72 7.84108 5.80778 7.2733 6.05995 6.77229C6.31212 6.27128 6.71586 5.86253 7.21372 5.6042C7.71159 5.34587 8.27823 5.2511 8.83307 5.33337C9.39901 5.4173 9.92297 5.68102 10.3275 6.08558C10.7321 6.49014 10.9958 7.01409 11.0797 7.58004Z" stroke="#F2781E" stroke-width="2" stroke-linecap="round" stroke-linejoin="round"/>
</g>
<defs>
<clipPath id="clip0_2070_43">
<rect width="16" height="16" fill="white" transform="translate(0.413086)"/>
</clipPath>
</defs>
</svg>
