<svg width="20" height="20" viewBox="0 0 20 20" fill="none" xmlns="http://www.w3.org/2000/svg">
<path d="M16.6666 8.33341C16.6666 13.3334 9.99998 18.3334 9.99998 18.3334C9.99998 18.3334 3.33331 13.3334 3.33331 8.33341C3.33331 6.5653 4.03569 4.86961 5.28593 3.61937C6.53618 2.36913 8.23187 1.66675 9.99998 1.66675C11.7681 1.66675 13.4638 2.36913 14.714 3.61937C15.9643 4.86961 16.6666 6.5653 16.6666 8.33341Z" stroke="#FF1F14" stroke-width="2" stroke-linecap="round" stroke-linejoin="round"/>
<path d="M9.99998 10.8334C11.3807 10.8334 12.5 9.71413 12.5 8.33341C12.5 6.9527 11.3807 5.83341 9.99998 5.83341C8.61927 5.83341 7.49998 6.9527 7.49998 8.33341C7.49998 9.71413 8.61927 10.8334 9.99998 10.8334Z" stroke="#FF1F14" stroke-width="2" stroke-linecap="round" stroke-linejoin="round"/>
</svg>
