<svg width="17" height="16" viewBox="0 0 17 16" fill="none" xmlns="http://www.w3.org/2000/svg">
<path d="M14.996 11.28V13.28C14.9968 13.4657 14.9579 13.6494 14.8818 13.8195C14.8058 13.9897 14.6942 14.1424 14.5544 14.2679C14.4145 14.3934 14.2493 14.489 14.0695 14.5485C13.8897 14.6079 13.6991 14.63 13.51 14.6133C11.4125 14.3904 9.39772 13.6894 7.62751 12.5667C5.98056 11.5431 4.58424 10.1774 3.53769 8.56665C2.38571 6.82745 1.66881 4.84731 1.44507 2.78665C1.42804 2.60229 1.45044 2.41649 1.51085 2.24107C1.57126 2.06564 1.66835 1.90444 1.79595 1.76773C1.92355 1.63102 2.07886 1.52179 2.25199 1.447C2.42511 1.37221 2.61226 1.33349 2.80153 1.33332H4.84644C5.17724 1.33013 5.49794 1.4447 5.74876 1.65567C5.99958 1.86664 6.16341 2.15961 6.20971 2.47998C6.29602 3.12003 6.45609 3.74847 6.68686 4.35332C6.77857 4.59193 6.79841 4.85126 6.74405 5.10057C6.68969 5.34988 6.56339 5.57872 6.38012 5.75998L5.51444 6.60665C6.48479 8.27568 7.89775 9.65761 9.60426 10.6067L10.4699 9.75998C10.6553 9.58074 10.8893 9.45722 11.1442 9.40405C11.3991 9.35088 11.6642 9.37029 11.9082 9.45998C12.5266 9.68568 13.1692 9.84224 13.8236 9.92665C14.1547 9.97234 14.4571 10.1355 14.6733 10.385C14.8894 10.6345 15.0043 10.953 14.996 11.28Z" stroke="white" stroke-width="2" stroke-linecap="round" stroke-linejoin="round"/>
</svg>
