<svg width="38" height="46" viewBox="0 0 38 46" fill="none" xmlns="http://www.w3.org/2000/svg">
<path d="M12.75 23L16.9167 27.1667L25.25 18.8334M35.6667 25.0834C35.6667 35.5 28.375 40.7084 19.7083 43.7292C19.2545 43.883 18.7615 43.8756 18.3125 43.7084C9.62501 40.7084 2.33334 35.5 2.33334 25.0834V10.5C2.33334 9.94751 2.55284 9.4176 2.94354 9.0269C3.33424 8.6362 3.86414 8.41671 4.41668 8.41671C8.58334 8.41671 13.7917 5.91671 17.4167 2.75004C17.858 2.37296 18.4195 2.16577 19 2.16577C19.5805 2.16577 20.142 2.37296 20.5833 2.75004C24.2292 5.93754 29.4167 8.41671 33.5833 8.41671C34.1359 8.41671 34.6658 8.6362 35.0565 9.0269C35.4472 9.4176 35.6667 9.94751 35.6667 10.5V25.0834Z" stroke="white" stroke-width="3" stroke-linecap="round" stroke-linejoin="round"/>
</svg>
