<svg width="41" height="41" viewBox="0 0 41 41" fill="none" xmlns="http://www.w3.org/2000/svg">
<rect x="0.5" y="0.5" width="40" height="40" fill="#FF1F14"/>
<rect x="0.5" y="0.5" width="40" height="40" stroke="#FF1F14"/>
<path d="M14.7853 17.071L15.9283 28.5H25.0703L26.2133 17.071M21.9993 24V19M18.9993 24V19M13.0703 14.786H17.6423M17.6423 14.786L18.0243 13.257C18.0785 13.0408 18.2034 12.8488 18.3791 12.7117C18.5548 12.5745 18.7714 12.5 18.9943 12.5H22.0043C22.2272 12.5 22.4438 12.5745 22.6195 12.7117C22.7953 12.8488 22.9201 13.0408 22.9743 13.257L23.3563 14.786M17.6423 14.786H23.3563M23.3563 14.786H27.9283" stroke="white" stroke-width="1.5" stroke-linecap="round" stroke-linejoin="round"/>
</svg>
