<svg width="20" height="20" viewBox="0 0 20 20" fill="none" xmlns="http://www.w3.org/2000/svg">
<path d="M17.0121 2.90097C13.1351 -0.970609 6.85807 -0.965179 2.98649 2.9064C-0.17919 6.07752 -0.830788 10.9808 1.40637 14.8632L0 20L5.25623 18.6154C6.71146 19.4081 8.34046 19.8208 9.99661 19.8208C15.4375 19.9077 19.9172 15.5691 20.0041 10.1283C20.0475 7.40786 18.9615 4.79061 17.0121 2.90097ZM10.002 18.1538C8.52508 18.1538 7.07527 17.7574 5.80466 17.0081L5.50601 16.8289L2.38919 17.6488L3.21998 14.608L3.0245 14.2931C0.657028 10.3944 1.9005 5.31732 5.7938 2.94984C9.69253 0.582368 14.7696 1.82583 17.137 5.71913C17.9027 6.98432 18.3208 8.4287 18.3371 9.91109C18.2882 14.4777 14.5741 18.1538 10.002 18.1538ZM14.5198 11.9799C14.2754 11.855 13.0537 11.2577 12.8256 11.1763C12.5976 11.0948 12.4347 11.0514 12.2663 11.3012C12.098 11.5509 11.6256 12.1048 11.479 12.2731C11.3324 12.4415 11.1912 12.4632 10.9414 12.3383C9.48619 11.6107 8.53051 11.0405 7.5694 9.38981C7.31419 8.94998 7.82461 8.98256 8.29702 8.03774C8.36218 7.89656 8.35675 7.73366 8.2753 7.60334C8.21557 7.47845 7.71601 6.2567 7.50967 5.76258C7.30876 5.27931 7.10242 5.3499 6.95038 5.33904C6.8092 5.32818 6.64087 5.32818 6.47797 5.32818C6.22276 5.33361 5.98385 5.44764 5.81552 5.63769C5.2508 6.17525 4.93586 6.92459 4.94672 7.70651C5.02817 8.64047 5.38112 9.53099 5.9567 10.2695C6.08159 10.4324 7.70515 12.9356 10.1921 14.0107C11.7668 14.6895 12.3804 14.7492 13.1677 14.6297C13.6456 14.5592 14.6338 14.0324 14.8402 13.4514C15.0031 13.0822 15.0519 12.6695 14.9813 12.2731C14.9216 12.1645 14.7587 12.0994 14.5144 11.9799H14.5198Z" fill="#FF1F14"/>
</svg>
