<svg width="75" height="75" viewBox="0 0 75 75" fill="none" xmlns="http://www.w3.org/2000/svg">
<path d="M37.5 75C58.2107 75 75 58.2107 75 37.5C75 16.7893 58.2107 0 37.5 0C16.7893 0 0 16.7893 0 37.5C0 58.2107 16.7893 75 37.5 75Z" fill="#22BE4A"/>
<path d="M50.8901 24.02C43.7501 16.89 32.1901 16.9 25.0601 24.03C19.2301 29.87 18.0301 38.9 22.1501 46.05L19.5601 55.51L29.2401 52.96C31.9201 54.42 34.9201 55.18 37.9701 55.18C47.9901 55.34 56.2401 47.35 56.4001 37.33C56.4801 32.32 54.4801 27.5 50.8901 24.02ZM37.9801 52.11C35.2601 52.11 32.5901 51.38 30.2501 50L29.7001 49.67L23.9601 51.18L25.4901 45.58L25.1301 45C20.7701 37.82 23.0601 28.47 30.2301 24.11C37.4101 19.75 46.7601 22.04 51.1201 29.21C52.5301 31.54 53.3001 34.2 53.3301 36.93C53.2401 45.34 46.4001 52.11 37.9801 52.11ZM46.3001 40.74C45.8501 40.51 43.6001 39.41 43.1801 39.26C42.7601 39.11 42.4601 39.03 42.1501 39.49C41.8401 39.95 40.9701 40.97 40.7001 41.28C40.4301 41.59 40.1701 41.63 39.7101 41.4C37.0301 40.06 35.2701 39.01 33.5001 35.97C33.0301 35.16 33.9701 35.22 34.8401 33.48C34.9601 33.22 34.9501 32.92 34.8001 32.68C34.6901 32.45 33.7701 30.2 33.3901 29.29C33.0201 28.4 32.6401 28.53 32.3601 28.51C32.1001 28.49 31.7901 28.49 31.4901 28.49C31.0201 28.5 30.5801 28.71 30.2701 29.06C29.2301 30.05 28.6501 31.43 28.6701 32.87C28.8201 34.59 29.4701 36.23 30.5301 37.59C30.7601 37.89 33.7501 42.5 38.3301 44.48C41.2301 45.73 42.3601 45.84 43.8101 45.62C44.6901 45.49 46.5101 44.52 46.8901 43.45C47.1901 42.77 47.2801 42.01 47.1501 41.28C47.0401 41.08 46.7401 40.96 46.2901 40.74H46.3001Z" fill="white"/>
</svg>
