<svg width="50" height="50" viewBox="0 0 50 50" fill="none" xmlns="http://www.w3.org/2000/svg">
<path d="M25 45.8333C36.5059 45.8333 45.8333 36.5059 45.8333 25C45.8333 13.4941 36.5059 4.16667 25 4.16667C13.494 4.16667 4.16663 13.4941 4.16663 25C4.16663 36.5059 13.494 45.8333 25 45.8333Z" stroke="white" stroke-width="3" stroke-linecap="round" stroke-linejoin="round"/>
<path d="M25 37.5C31.9036 37.5 37.5 31.9036 37.5 25C37.5 18.0964 31.9036 12.5 25 12.5C18.0964 12.5 12.5 18.0964 12.5 25C12.5 31.9036 18.0964 37.5 25 37.5Z" stroke="white" stroke-width="3" stroke-linecap="round" stroke-linejoin="round"/>
<path d="M25 29.1667C27.3012 29.1667 29.1667 27.3012 29.1667 25C29.1667 22.6988 27.3012 20.8333 25 20.8333C22.6989 20.8333 20.8334 22.6988 20.8334 25C20.8334 27.3012 22.6989 29.1667 25 29.1667Z" stroke="white" stroke-width="3" stroke-linecap="round" stroke-linejoin="round"/>
</svg>
