<svg width="50" height="50" viewBox="0 0 50 50" fill="none" xmlns="http://www.w3.org/2000/svg">
<path d="M4.16675 43.75C4.16675 37.5 8.02091 32.5833 14.7501 31.25C19.7917 30.25 25.0001 27.0833 27.0834 25M22.9167 41.6667C19.2585 41.6778 15.7298 40.3135 13.0303 37.8446C10.3309 35.3757 8.65793 31.9824 8.34328 28.3377C8.02863 24.6931 9.09527 21.0633 11.3316 18.1682C13.568 15.2732 16.8108 13.3244 20.4167 12.7083C32.2917 10.4167 35.4167 9.33334 39.5834 4.16667C41.6667 8.33334 43.7501 12.875 43.7501 20.8333C43.7501 32.2917 33.7917 41.6667 22.9167 41.6667Z" stroke="white" stroke-width="3" stroke-linecap="round" stroke-linejoin="round"/>
</svg>
